<svg id="_Layer_1" data-name="#Layer 1" xmlns="http://www.w3.org/2000/svg" width="169.625" height="96.28" viewBox="0 0 169.625 96.28">
  <defs>
    <style>
      .cls-1 {
        fill: #96989b;
      }

      .cls-1, .cls-2 {
        fill-rule: evenodd;
      }

      .cls-2 {
        fill: #21a9a0;
      }
    </style>
  </defs>
  <path id="Camada_42" data-name="Camada 42" class="cls-1" d="M533.287,3587.06l1.841-.16a4.029,4.029,0,0,0,.608,1.81,3.27,3.27,0,0,0,1.488,1.15,5.64,5.64,0,0,0,2.264.44,5.482,5.482,0,0,0,1.974-.33,2.841,2.841,0,0,0,1.274-.91,2.144,2.144,0,0,0,.418-1.27,1.913,1.913,0,0,0-.4-1.21,2.919,2.919,0,0,0-1.326-.87,25.871,25.871,0,0,0-2.633-.72,14.3,14.3,0,0,1-2.85-.92,3.985,3.985,0,0,1-1.574-1.38,3.36,3.36,0,0,1-.518-1.84,3.72,3.72,0,0,1,.632-2.08,3.9,3.9,0,0,1,1.853-1.48,6.964,6.964,0,0,1,2.711-.5,7.452,7.452,0,0,1,2.9.52,4.22,4.22,0,0,1,1.931,1.56,4.5,4.5,0,0,1,.722,2.33l-1.869.14a3.068,3.068,0,0,0-1.027-2.12,3.955,3.955,0,0,0-2.571-.71,4.087,4.087,0,0,0-2.584.65,1.932,1.932,0,0,0-.812,1.56,1.679,1.679,0,0,0,.573,1.31,7.671,7.671,0,0,0,2.943,1.05,20.348,20.348,0,0,1,3.272.94,4.5,4.5,0,0,1,1.907,1.51,3.672,3.672,0,0,1,.609,2.1,4,4,0,0,1-.672,2.22,4.477,4.477,0,0,1-1.938,1.63,6.859,6.859,0,0,1-2.846.57,8.485,8.485,0,0,1-3.358-.58,4.677,4.677,0,0,1-2.127-1.76,4.942,4.942,0,0,1-.806-2.65M514.5,3591.8v-14.76h10.671v1.74h-8.718v4.52h8.17v1.73h-8.17v5.03h9.064v1.74H514.5Zm-18.712-15.67a2.3,2.3,0,0,1,.575-1.67,1.882,1.882,0,0,1,1.469-.62,4.167,4.167,0,0,1,1.7.54,2.274,2.274,0,0,0,.949.3,0.681,0.681,0,0,0,.49-0.17,1.277,1.277,0,0,0,.245-0.71h1.306a2.509,2.509,0,0,1-.579,1.73,1.849,1.849,0,0,1-1.4.57,3.849,3.849,0,0,1-1.669-.56,2.591,2.591,0,0,0-.988-0.37,0.677,0.677,0,0,0-.554.25,0.987,0.987,0,0,0-.212.71H495.79Zm-1.683,8.51a5.939,5.939,0,0,0,1.432,4.21,5.015,5.015,0,0,0,7.232-.02,6.253,6.253,0,0,0,1.427-4.4,7.6,7.6,0,0,0-.61-3.15,4.712,4.712,0,0,0-1.783-2.09,4.85,4.85,0,0,0-2.634-.73,4.988,4.988,0,0,0-3.569,1.42q-1.5,1.425-1.495,4.76m-2.015-.03a8.032,8.032,0,0,1,1.974-5.76,6.736,6.736,0,0,1,5.1-2.08,7.089,7.089,0,0,1,3.685.98,6.432,6.432,0,0,1,2.5,2.73,8.824,8.824,0,0,1,.857,3.96,8.707,8.707,0,0,1-.9,4.02,6.225,6.225,0,0,1-2.57,2.68,7.312,7.312,0,0,1-3.584.91,6.887,6.887,0,0,1-3.725-1.01,6.38,6.38,0,0,1-2.491-2.75,8.271,8.271,0,0,1-.846-3.68m-30.971-7.57h1.957v8.53a10.132,10.132,0,0,1-.5,3.53,4.31,4.31,0,0,1-1.822,2.13,6.4,6.4,0,0,1-3.447.82,7.05,7.05,0,0,1-3.393-.71,4.084,4.084,0,0,1-1.881-2.07,9.832,9.832,0,0,1-.565-3.7v-8.53h1.952v8.52a8.229,8.229,0,0,0,.359,2.83A2.717,2.717,0,0,0,455,3589.8a4.258,4.258,0,0,0,2.13.49,4.086,4.086,0,0,0,3.075-.98q0.912-.975.913-3.75v-8.52Zm-26.2,14.76v-14.76h1.955v13.02h7.27v1.74h-9.225Zm-20.272-7.16a5.94,5.94,0,0,0,1.434,4.21,5.014,5.014,0,0,0,7.231-.02,6.258,6.258,0,0,0,1.429-4.4,7.565,7.565,0,0,0-.614-3.15,4.72,4.72,0,0,0-1.778-2.09,4.866,4.866,0,0,0-2.634-.73,5,5,0,0,0-3.574,1.42q-1.494,1.425-1.494,4.76m-2.017-.03a8.046,8.046,0,0,1,1.975-5.76,6.737,6.737,0,0,1,5.1-2.08,7.08,7.08,0,0,1,3.684.98,6.426,6.426,0,0,1,2.5,2.73,8.838,8.838,0,0,1,.857,3.96,8.72,8.72,0,0,1-.9,4.02,6.218,6.218,0,0,1-2.567,2.68,7.33,7.33,0,0,1-3.588.91,6.912,6.912,0,0,1-3.728-1.01,6.419,6.419,0,0,1-2.486-2.75,8.247,8.247,0,0,1-.849-3.68m-19.555,2.45,1.846-.16a4.053,4.053,0,0,0,.6,1.81,3.3,3.3,0,0,0,1.486,1.15,5.652,5.652,0,0,0,2.265.44,5.437,5.437,0,0,0,1.972-.33,2.843,2.843,0,0,0,1.278-.91,2.15,2.15,0,0,0,.417-1.27,1.908,1.908,0,0,0-.4-1.21,2.906,2.906,0,0,0-1.327-.87,25.718,25.718,0,0,0-2.628-.72,14.243,14.243,0,0,1-2.851-.92,4.009,4.009,0,0,1-1.577-1.38,3.35,3.35,0,0,1-.516-1.84,3.719,3.719,0,0,1,.631-2.08,3.9,3.9,0,0,1,1.854-1.48,6.966,6.966,0,0,1,2.71-.5,7.457,7.457,0,0,1,2.9.52,4.223,4.223,0,0,1,1.93,1.56,4.476,4.476,0,0,1,.724,2.33l-1.873.14a3.05,3.05,0,0,0-1.025-2.12,3.948,3.948,0,0,0-2.571-.71,4.093,4.093,0,0,0-2.585.65,1.933,1.933,0,0,0-.811,1.56,1.689,1.689,0,0,0,.573,1.31,7.708,7.708,0,0,0,2.947,1.05,20.483,20.483,0,0,1,3.269.94,4.483,4.483,0,0,1,1.9,1.51,3.674,3.674,0,0,1,.612,2.1,4,4,0,0,1-.673,2.22,4.452,4.452,0,0,1-1.939,1.63,6.838,6.838,0,0,1-2.843.57,8.48,8.48,0,0,1-3.359-.58,4.7,4.7,0,0,1-2.128-1.76,5,5,0,0,1-.808-2.65" transform="translate(-375.406 -3499.75)"/>
  <path id="Camada_43" data-name="Camada 43" class="cls-2" d="M441.774,3508.9a6.1,6.1,0,0,1-5.468,3.26,6.2,6.2,0,0,1-2.817-.67,5.881,5.881,0,0,1-2.151-2.22,6.339,6.339,0,0,1,.126-6.16,6.239,6.239,0,0,1,2.363-2.48,6.048,6.048,0,0,1,3.105-.88,5.545,5.545,0,0,1,2.722.77,5.032,5.032,0,0,1,2.246,2.18,6.281,6.281,0,0,1,.736,3.01,6.45,6.45,0,0,1-.862,3.19" transform="translate(-375.406 -3499.75)"/>
  <path id="Camada_44" data-name="Camada 44" class="cls-2" d="M445.71,3556.28a3.341,3.341,0,0,1-1.6,1.08,4.386,4.386,0,0,1-2.258.22,3.283,3.283,0,0,1-1.969-1.18,5.02,5.02,0,0,1-.828-3.25l0.113-22.47c0.009-1.88.032-3.4,0.069-4.55s0.09-2.09.154-2.78c0.068-.75.132-1.34,0.2-1.78q-5.826-.03-8.848,2.4t-3.048,8.07l-0.206,22.18a14.487,14.487,0,0,0,.682,4.51,10.146,10.146,0,0,0,2.144,3.77,9.95,9.95,0,0,0,3.6,2.51,10.416,10.416,0,0,0,5.074.64,6.265,6.265,0,0,0,4.425-1.72,8,8,0,0,0,1.9-3.23,12.56,12.56,0,0,0,.4-4.42" transform="translate(-375.406 -3499.75)"/>
  <path id="Camada_45" data-name="Camada 45" class="cls-2" d="M406.306,3560.18a9.7,9.7,0,0,1-3.969,4.21,12.235,12.235,0,0,1-4.236,1.29,10.325,10.325,0,0,1-4.7-.77q-0.743-1.695-2-4.76t-2.786-6.83q-1.53-3.765-3.25-7.91c-1.145-2.76-2.228-5.42-3.249-7.96s-1.95-4.85-2.785-6.92-1.469-3.68-1.9-4.81c-0.248-.56-0.494-1.13-0.744-1.69s-0.464-1.1-.65-1.6c-0.248-.57-0.464-1.13-0.649-1.7a17.858,17.858,0,0,1,5.359-.44,12.256,12.256,0,0,1,4.366,1.29,7.74,7.74,0,0,1,3.5,4.11c0.249,0.69.6,1.61,1.068,2.77s0.958,2.44,1.484,3.82,1.084,2.82,1.672,4.33,1.158,3.01,1.715,4.52q1.949,5.19,4.266,11.21,2.287-6,4.381-11.16,0.86-2.265,1.809-4.51t1.76-4.31c0.541-1.38,1.031-2.64,1.475-3.8s0.826-2.08,1.143-2.77a7.289,7.289,0,0,1,3.5-4.07,12.894,12.894,0,0,1,4.423-1.25,17.922,17.922,0,0,1,5.354.5q-0.38.75-.758,1.59-0.287.75-.667,1.65c-0.252.59-.476,1.17-0.666,1.73q-0.668,1.785-1.81,4.65c-0.762,1.9-1.571,3.97-2.427,6.19s-1.778,4.5-2.762,6.85-1.918,4.59-2.8,6.75-1.728,4.1-2.521,5.81-1.44,3.05-1.946,3.99" transform="translate(-375.406 -3499.75)"/>
  <path id="Camada_46" data-name="Camada 46" class="cls-2" d="M476.352,3556.45a2.717,2.717,0,0,0,.09.66,5.7,5.7,0,0,1,.18,1.41,6.209,6.209,0,0,1-.767,3.05,6.932,6.932,0,0,1-2.079,2.29,10.688,10.688,0,0,1-6.4,1.85,14.27,14.27,0,0,1-6.1-1.44,16.474,16.474,0,0,1-5.429-4.26,21.225,21.225,0,0,1-3.865-7.02,29.9,29.9,0,0,1-1.407-9.83L450.8,3516q0.026-5.64,3.047-8.07t8.754-2.4c-0.065.44-.131,1.03-0.2,1.79-0.066.68-.118,1.61-0.156,2.77s-0.06,2.68-.068,4.56l0.062,5.92,12.6,0.06a9.6,9.6,0,0,1-2.384,6.76,8.674,8.674,0,0,1-6.687,2.5l-3.572-.02-0.162,13.35a26.549,26.549,0,0,0,.673,6.63,13.1,13.1,0,0,0,1.9,4.38,8.03,8.03,0,0,0,6.563,3.23,12.727,12.727,0,0,0,3.386-.46c0.627-.18,1.225-0.37,1.79-0.55" transform="translate(-375.406 -3499.75)"/>
  <path id="Camada_47" data-name="Camada 47" class="cls-2" d="M507.78,3549.4a12.019,12.019,0,0,1-1.428,3.66,9.465,9.465,0,0,1-1.137,1.73,6.323,6.323,0,0,1-1.6,1.36,8.322,8.322,0,0,1-4.616,1.48,4.727,4.727,0,0,1-1.126.08,9.545,9.545,0,0,1-3.9-.67,5.878,5.878,0,0,1-2.2-1.61,4.881,4.881,0,0,1-1.119-2.03,7.96,7.96,0,0,1-.271-2.02,2.9,2.9,0,0,1,.1-0.85,5.967,5.967,0,0,1,.383-1.55,4.75,4.75,0,0,1,.758-1.26,7.011,7.011,0,0,1,3.584-2.33,9.764,9.764,0,0,1,2.259-.51,23.133,23.133,0,0,1,2.538-.13,27.279,27.279,0,0,1,3.148.21q1.547,0.2,2.77.39c0.438,0.12.814,0.22,1.128,0.28s0.594,0.13.843,0.2a0.2,0.2,0,0,1,.141.04,0.167,0.167,0,0,0,.142.05,17.85,17.85,0,0,1-.394,3.48m5.755-22.91a19.259,19.259,0,0,0-6.182-4.31,19.811,19.811,0,0,0-7.888-1.59h-0.8a4.378,4.378,0,0,0-.8.09,22.081,22.081,0,0,0-14.98,6.88l-0.19.28,0.187,0.38a5.6,5.6,0,0,0,1.962,2.17,5.918,5.918,0,0,0,2.536.57,10.381,10.381,0,0,0,2.539-.31c0.877-.22,1.758-0.48,2.636-0.79a26.149,26.149,0,0,1,2.637-.78,14.99,14.99,0,0,1,2.632-.41h1.035a12.161,12.161,0,0,1,2.489.25,8.42,8.42,0,0,1,2.017.72,8.166,8.166,0,0,1,3.645,4.24,17.894,17.894,0,0,1,1.194,5.18,30.359,30.359,0,0,0-9.3-1.46,27.1,27.1,0,0,0-6.677.77,19.466,19.466,0,0,0-5.746,2.37,11.721,11.721,0,0,0-4.063,4.21,11.431,11.431,0,0,0-1.535,6.1l0,0.56a12.543,12.543,0,0,0,1.846,6.69,11.591,11.591,0,0,0,2.991,3.54,16.274,16.274,0,0,0,3.937,2.22,15.517,15.517,0,0,0,4.223,1.29,26.256,26.256,0,0,0,4.134.35c0.438,0.01.846,0.01,1.221,0.01a7.132,7.132,0,0,0,1.129-.09,20.533,20.533,0,0,0,7.673-2.31,19.6,19.6,0,0,0,5.9-4.86q5.011-6.075,5.062-15.86l0-.75q-0.14-9.495-5.468-15.35" transform="translate(-375.406 -3499.75)"/>
  <path id="Camada_48" data-name="Camada 48" class="cls-2" d="M541.03,3508.9a6.1,6.1,0,0,1-5.47,3.26,6.2,6.2,0,0,1-2.816-.67,5.863,5.863,0,0,1-2.15-2.22,6,6,0,0,1-.737-2.97,6.1,6.1,0,0,1,.862-3.19,6.23,6.23,0,0,1,2.362-2.48,6.058,6.058,0,0,1,3.107-.88,5.536,5.536,0,0,1,2.721.77,5.049,5.049,0,0,1,2.247,2.18,6.268,6.268,0,0,1,.734,3.01,6.448,6.448,0,0,1-.86,3.19" transform="translate(-375.406 -3499.75)"/>
  <path id="Camada_49" data-name="Camada 49" class="cls-2" d="M544.966,3556.28a3.336,3.336,0,0,1-1.6,1.08,4.384,4.384,0,0,1-2.258.22,3.28,3.28,0,0,1-1.969-1.18,5,5,0,0,1-.827-3.25l0.112-22.47c0.009-1.88.031-3.4,0.069-4.55s0.09-2.09.153-2.78c0.068-.75.133-1.34,0.2-1.78q-5.829-.03-8.848,2.4t-3.048,8.07l-0.206,22.18a14.43,14.43,0,0,0,.683,4.51,10.128,10.128,0,0,0,2.142,3.77,9.945,9.945,0,0,0,3.606,2.51,10.417,10.417,0,0,0,5.074.64,6.268,6.268,0,0,0,4.426-1.72,8.025,8.025,0,0,0,1.9-3.23,12.56,12.56,0,0,0,.4-4.42" transform="translate(-375.406 -3499.75)"/>
  <path id="Camada_50" data-name="Camada 50" class="cls-1" d="M482.594,3586.62l1.954,0.5a6.607,6.607,0,0,1-2.209,3.67,6.105,6.105,0,0,1-3.9,1.26,7.018,7.018,0,0,1-3.884-.97,6.12,6.12,0,0,1-2.273-2.81,10.081,10.081,0,0,1-.779-3.96,8.717,8.717,0,0,1,.878-4.03,6.014,6.014,0,0,1,2.513-2.6,7.252,7.252,0,0,1,3.576-.9,6.073,6.073,0,0,1,3.728,1.13,5.89,5.89,0,0,1,2.1,3.18l-1.922.45a4.537,4.537,0,0,0-1.492-2.35,3.962,3.962,0,0,0-2.458-.73,4.789,4.789,0,0,0-2.842.81,4.332,4.332,0,0,0-1.606,2.19,8.8,8.8,0,0,0-.464,2.84,9.118,9.118,0,0,0,.545,3.29,4.159,4.159,0,0,0,1.71,2.1,4.819,4.819,0,0,0,2.509.69,4.209,4.209,0,0,0,2.779-.94,4.882,4.882,0,0,0,1.539-2.82" transform="translate(-375.406 -3499.75)"/>
  <path id="Camada_51" data-name="Camada 51" class="cls-1" d="M476.714,3593.35a4.522,4.522,0,0,1,1.042.11,1.01,1.01,0,0,1,.426.24,0.519,0.519,0,0,1,.114.33,0.589,0.589,0,0,1-.29.49,2.524,2.524,0,0,1-1.332.26c-0.2,0-.515-0.01-0.944-0.04l-0.114,1.18a7.783,7.783,0,0,0,1.449.12,3.445,3.445,0,0,0,2.189-.58,1.669,1.669,0,0,0,.726-1.33,1.3,1.3,0,0,0-.435-0.95,2.077,2.077,0,0,0-1.29-.53l0.332-1.08h-1.35Z" transform="translate(-375.406 -3499.75)"/>
</svg>
